<?xml version="1.0" encoding="UTF-8" standalone="no"?>
<!-- Created with Inkscape (http://www.inkscape.org/) -->

<svg
   width="256"
   height="256"
   viewBox="0 0 256 256.00001"
   version="1.1"
   id="svg1"
   inkscape:version="1.3 (0e150ed6c4, 2023-07-21)"
   sodipodi:docname="icon.svg"
   inkscape:export-filename="icon.png"
   inkscape:export-xdpi="96"
   inkscape:export-ydpi="96"
   xmlns:inkscape="http://www.inkscape.org/namespaces/inkscape"
   xmlns:sodipodi="http://sodipodi.sourceforge.net/DTD/sodipodi-0.dtd"
   xmlns="http://www.w3.org/2000/svg"
   xmlns:svg="http://www.w3.org/2000/svg">
  <sodipodi:namedview
     id="namedview1"
     pagecolor="#505050"
     bordercolor="#eeeeee"
     borderopacity="1"
     inkscape:showpageshadow="0"
     inkscape:pageopacity="0"
     inkscape:pagecheckerboard="true"
     inkscape:deskcolor="#d1d1d1"
     inkscape:document-units="px"
     showborder="true"
     inkscape:zoom="1.1463065"
     inkscape:cx="5.6703857"
     inkscape:cy="126.05704"
     inkscape:window-width="1920"
     inkscape:window-height="1011"
     inkscape:window-x="1440"
     inkscape:window-y="32"
     inkscape:window-maximized="1"
     inkscape:current-layer="layer1"
     showgrid="false" />
  <defs
     id="defs1">
    <rect
       x="60.956221"
       y="82.81573"
       width="12.337093"
       height="155.83976"
       id="rect1" />
    <filter
       y="-0.081964527"
       height="1.1639291"
       inkscape:menu-tooltip="Darkens the edge with an inner blur and adds a flexible glow"
       inkscape:menu="Shadows and Glows"
       inkscape:label="Dark and Glow"
       style="color-interpolation-filters:sRGB;"
       id="filter4"
       x="-0.049413448"
       width="1.0988269">
      <feGaussianBlur
         stdDeviation="5"
         result="result6"
         id="feGaussianBlur3" />
      <feComposite
         result="result8"
         in="SourceGraphic"
         operator="atop"
         in2="result6"
         id="feComposite3" />
      <feComposite
         result="result9"
         operator="over"
         in2="SourceAlpha"
         in="result8"
         id="feComposite4" />
      <feColorMatrix
         values="1 0 0 0 0 0 1 0 0 0 0 0 1 0 0 0 0 0 1 0 "
         result="result10"
         id="feColorMatrix4" />
      <feBlend
         in="result10"
         mode="normal"
         in2="result6"
         id="feBlend4" />
    </filter>
  </defs>
  <g
     inkscape:label="Layer 1"
     inkscape:groupmode="layer"
     id="layer1">
    <path
       style="color:#000000;fill:#ffb900;stroke:#000000;stroke-width:4;stroke-linecap:round;stroke-dasharray:none;stroke-opacity:1;paint-order:stroke fill markers"
       d="m 132.67322,3.7950947 c -25.35377,0 -48.280536,1.868465 -65.415581,5.0389517 -8.567523,1.5852436 -15.641367,3.4310256 -21.327006,5.9182576 -2.84282,1.243616 -5.376392,2.603646 -7.728055,4.730058 -2.351663,2.12641 -4.851354,5.662475 -4.851354,10.161285 0,4.498811 2.499691,8.03677 4.851354,10.163181 2.351663,2.126412 4.885235,3.486442 7.728055,4.730058 5.685639,2.487232 12.759483,4.333014 21.327006,5.918257 17.135045,3.170487 40.061811,5.038952 65.415581,5.038952 25.35377,0 48.28243,-1.868465 65.41747,-5.038952 8.56752,-1.585243 15.64137,-3.431025 21.32701,-5.918257 2.84281,-1.243616 5.37639,-2.603646 7.72805,-4.730058 2.35166,-2.126411 4.85135,-5.66437 4.85135,-10.163181 0,-4.49881 -2.49969,-8.034875 -4.85135,-10.161285 C 224.79409,17.35595 222.26051,15.99592 219.4177,14.752304 213.73206,12.265072 206.65821,10.41929 198.09069,8.8340464 180.95565,5.6635597 158.02699,3.7950947 132.67322,3.7950947 Z m 0,18.3365533 c 24.437,0 46.58782,1.865045 62.08216,4.731954 4.6305,0.856776 8.40366,1.817423 11.64894,2.780045 -3.24537,0.962674 -7.01819,1.925118 -11.64894,2.781941 -15.49434,2.866909 -37.64516,4.731953 -62.08216,4.731953 -24.43701,0 -46.585934,-1.865044 -62.080276,-4.731953 -4.630742,-0.856823 -8.403564,-1.819267 -11.648934,-2.781941 3.245281,-0.962622 7.018446,-1.923269 11.648934,-2.780045 15.494342,-2.866909 37.643266,-4.731954 62.080276,-4.731954 z"
       id="path3" />
    <path
       style="color:#000000;fill:#ffffff;stroke:#000000;stroke-width:4;stroke-linecap:round;stroke-dasharray:none;stroke-opacity:1;paint-order:stroke fill markers"
       d="M 128,58.367119 A 18.335837,18.33579 0 0 0 109.6634,76.703673 V 234.48407 A 18.335837,18.33579 0 0 0 128,252.81872 18.335837,18.33579 0 0 0 146.3366,234.48407 V 76.703673 A 18.335837,18.33579 0 0 0 128,58.367119 Z"
       id="path2" />
    <path
       style="color:#000000;fill:#ffffff;stroke:#000000;stroke-width:4;stroke-linecap:round;stroke-dasharray:none;stroke-opacity:1;paint-order:stroke fill markers"
       d="m 180.92903,58.050644 a 18.335885,18.335837 0 0 0 -18.33471,18.33466 v 54.255426 a 18.335885,18.335837 0 0 0 18.33471,18.33655 18.335885,18.335837 0 0 0 18.3366,-18.33655 V 76.385304 a 18.335885,18.335837 0 0 0 -18.3366,-18.33466 z"
       id="path2-5-2-6-9" />
    <path
       style="color:#000000;fill:#ffffff;stroke:#000000;stroke-width:4;stroke-linecap:round;stroke-dasharray:none;stroke-opacity:1;paint-order:stroke fill markers"
       d="m 233.85805,58.050644 a 18.335885,18.335837 0 0 0 -18.3347,18.336555 v 20.066738 a 18.335885,18.335837 0 0 0 18.3347,18.336553 18.335885,18.335837 0 0 0 18.33661,-18.336553 V 76.387199 A 18.335885,18.335837 0 0 0 233.85805,58.050644 Z"
       id="path2-5-2" />
    <path
       style="color:#000000;fill:#ffffff;stroke:#000000;stroke-width:4;stroke-linecap:round;stroke-dasharray:none;stroke-opacity:1;paint-order:stroke fill markers"
       d="M 22.141943,58.050644 A 18.335885,18.335837 0 0 0 3.8053424,76.387199 V 96.453937 A 18.335885,18.335837 0 0 0 22.141943,114.79049 18.335885,18.335837 0 0 0 40.47665,96.453937 V 76.387199 A 18.335885,18.335837 0 0 0 22.141943,58.050644 Z"
       id="path2-5-2-7" />
    <path
       style="color:#000000;fill:#ffffff;stroke:#000000;stroke-width:4;stroke-linecap:round;stroke-dasharray:none;stroke-opacity:1;paint-order:stroke fill markers"
       d="M 75.070972,58.050644 A 18.335885,18.335837 0 0 0 56.73437,76.385304 v 54.255426 a 18.335885,18.335837 0 0 0 18.336602,18.33655 18.335885,18.335837 0 0 0 18.334706,-18.33655 V 76.385304 A 18.335885,18.335837 0 0 0 75.070972,58.050644 Z"
       id="path2-5-2-6-6" />
  </g>
</svg>
