<?xml version="1.0" encoding="UTF-8" standalone="no"?>
<svg
   height="16px"
   viewBox="0 0 16 16"
   width="16px"
   version="1.1"
   id="svg1"
   xmlns="http://www.w3.org/2000/svg">
  <path
     id="path1"
     d="M 7.0078125 -0.0078125 C 6.4882815 -0.0078125 5.9726565 0.12890625 5.5078125 0.39453125 C 4.5820315 0.92968825 4.0078125 1.9218745 4.0078125 2.9921875 L 4.0078125 9.9921875 L 0.0078125 9.9921875 L 0.0078125 12.992188 C 0.0078125 14.062499 0.5820315 15.058594 1.5078125 15.59375 C 1.9726565 15.859375 2.4921885 15.992187 3.0078125 15.992188 L 3.0078125 16 L 10.007812 15.996094 L 10.007812 15.992188 L 10.023438 15.992188 C 10.816406 15.992188 11.582031 15.675781 12.144531 15.117188 C 12.703125 14.554688 13.023438 13.789062 13.023438 12.992188 C 13.023438 12.933597 13.019542 12.875 13.007812 12.816406 L 13.007812 8.9921875 L 11.007812 8.9921875 L 11.007812 12.992188 L 11.023438 12.992188 C 11.023438 13.257812 10.917969 13.511719 10.730469 13.699219 C 10.539062 13.886719 10.285156 13.992188 10.023438 13.992188 C 9.9999975 13.992188 9.972656 13.992194 9.953125 13.996094 L 5.828125 14 C 5.941406 13.679688 6.0078125 13.339844 6.0078125 12.992188 L 6.0078125 2.9921875 C 6.0078125 2.6328115 6.1953125 2.3046882 6.5078125 2.1289062 C 6.6617037 2.0404185 6.8307241 1.9935805 7 1.9921875 L 7 0 L 13.15625 0 C 13.10676 -0.0024547595 13.057617 -0.0078125 13.007812 -0.0078125 L 7.0078125 -0.0078125 z M 15.990234 2.6816406 L 15.990234 5.9921875 L 16.007812 5.9921875 L 16.007812 2.9921875 C 16.007812 2.8879016 16.000915 2.7843545 15.990234 2.6816406 z M 2.0078125 11.992188 L 4.0078125 11.992188 L 4.0078125 12.992188 C 4.0078125 13.351562 3.8203125 13.679688 3.5078125 13.859375 C 3.1953125 14.039062 2.8203125 14.039062 2.5078125 13.859375 C 2.1953125 13.679688 2.0078125 13.351561 2.0078125 12.992188 L 2.0078125 11.992188 z "
     style="fill:#222222;fill-opacity:1" />
  <path
     d="M 11,0 V 3 H 8 v 2 h 3 v 3 h 2 V 5 h 3 V 3 H 13 V 0 Z m 0,0"
     id="path2-56"
     transform="translate(0.007812,-0.007812)"
     style="stroke:none;stroke-opacity:1;fill:#222222;fill-opacity:1" />
</svg>
