<svg width="256" height="256" xmlns="http://www.w3.org/2000/svg"><g color="#000" stroke="#000" stroke-width="4" stroke-linecap="round" paint-order="stroke fill markers"><path d="M132.673 3.795c-25.354 0-48.28 1.869-65.415 5.039-8.568 1.585-15.642 3.431-21.327 5.918-2.843 1.244-5.377 2.604-7.728 4.73-2.352 2.127-4.852 5.663-4.852 10.162 0 4.498 2.5 8.036 4.852 10.163 2.351 2.126 4.885 3.486 7.728 4.73 5.685 2.487 12.76 4.333 21.327 5.918 17.135 3.17 40.061 5.04 65.415 5.04 25.354 0 48.283-1.87 65.418-5.04 8.567-1.585 15.641-3.43 21.327-5.918 2.843-1.244 5.376-2.604 7.728-4.73 2.351-2.127 4.851-5.665 4.851-10.163 0-4.5-2.5-8.035-4.851-10.162-2.352-2.126-4.885-3.486-7.728-4.73-5.686-2.487-12.76-4.333-21.327-5.918-17.135-3.17-40.064-5.039-65.418-5.039zm0 18.337c24.437 0 46.588 1.865 62.082 4.732 4.63.856 8.404 1.817 11.65 2.78a111.872 111.872 0 01-11.65 2.782c-15.494 2.866-37.645 4.732-62.082 4.732-24.437 0-46.586-1.866-62.08-4.732-4.63-.857-8.404-1.82-11.649-2.782a111.93 111.93 0 0111.649-2.78c15.494-2.867 37.643-4.732 62.08-4.732z" fill="#ffb900"/><path d="M128 58.367a18.336 18.336 0 00-18.337 18.337v157.78A18.336 18.336 0 00128 252.82a18.336 18.336 0 0018.337-18.335V76.704A18.336 18.336 0 00128 58.367zM180.929 58.05a18.336 18.336 0 00-18.335 18.335v54.256a18.336 18.336 0 0018.335 18.336 18.336 18.336 0 0018.337-18.336V76.385a18.336 18.336 0 00-18.337-18.334zM233.858 58.05a18.336 18.336 0 00-18.335 18.337v20.067a18.336 18.336 0 0018.335 18.336 18.336 18.336 0 0018.337-18.336V76.387a18.336 18.336 0 00-18.337-18.336zM22.142 58.05A18.336 18.336 0 003.805 76.388v20.067a18.336 18.336 0 0018.337 18.336 18.336 18.336 0 0018.335-18.336V76.387a18.336 18.336 0 00-18.335-18.336zM75.071 58.05a18.336 18.336 0 00-18.337 18.335v54.256a18.336 18.336 0 0018.337 18.336 18.336 18.336 0 0018.335-18.336V76.385A18.336 18.336 0 0075.07 58.051z" fill="#fff"/></g></svg>
